<?xml version="1.0" encoding="UTF-8" standalone="no"?>
<svg
   xmlns:dc="http://purl.org/dc/elements/1.1/"
   xmlns:cc="http://creativecommons.org/ns#"
   xmlns:rdf="http://www.w3.org/1999/02/22-rdf-syntax-ns#"
   xmlns:svg="http://www.w3.org/2000/svg"
   xmlns="http://www.w3.org/2000/svg"
   xmlns:sodipodi="http://sodipodi.sourceforge.net/DTD/sodipodi-0.dtd"
   xmlns:inkscape="http://www.inkscape.org/namespaces/inkscape"
   version="1.1"
   id="svg2"
   xml:space="preserve"
   width="1253.7094"
   height="838.94269"
   viewBox="0 0 1253.7094 838.94269"
   sodipodi:docname="skin.svg"
   inkscape:version="1.0.1 (3bc2e813f5, 2020-09-07)"><metadata
     id="metadata8"><rdf:RDF><cc:Work
         rdf:about=""><dc:format>image/svg+xml</dc:format><dc:type
           rdf:resource="http://purl.org/dc/dcmitype/StillImage" /><dc:title /></cc:Work></rdf:RDF></metadata><defs
     id="defs6"><clipPath
       clipPathUnits="userSpaceOnUse"
       id="clipPath18"><path
         d="M 0,629.207 H 940.282 V 0 H 0 Z"
         id="path16" /></clipPath></defs><sodipodi:namedview
     pagecolor="#ffffff"
     bordercolor="#666666"
     borderopacity="1"
     objecttolerance="10"
     gridtolerance="10"
     guidetolerance="10"
     inkscape:pageopacity="0"
     inkscape:pageshadow="2"
     inkscape:window-width="1920"
     inkscape:window-height="1013"
     id="namedview4"
     showgrid="false"
     inkscape:zoom="2.8645696"
     inkscape:cx="616.76376"
     inkscape:cy="389.45828"
     inkscape:window-x="0"
     inkscape:window-y="30"
     inkscape:window-maximized="1"
     inkscape:current-layer="g857"
     inkscape:document-rotation="0" /><g
     id="g10"
     inkscape:groupmode="layer"
     inkscape:label="pbp_template_case_lid"
     transform="matrix(1.3333333,0,0,-1.3333333,0,838.94267)"><g
       id="g12"><g
         id="g14"
         clip-path="url(#clipPath18)"><g
           id="g20"
           transform="translate(931.9242,17.7879)"><path
             d="m 0,0 c -0.005,-0.011 -0.029,-0.06 -0.029,-0.06 l -0.043,-0.086 -0.382,-0.72 -0.796,-1.271 -1.362,-1.717 -2.076,-2.028 -1.838,-1.424 -2.242,-1.368 -2.683,-1.181 -3.813,-1.027 -4.411,-0.561 -4.939,-0.213 -5.422,-0.07 -5.883,-0.016 c 0,-0.003 -67.868,0.06 -67.868,0.06 0,-0.005 -357.996,-0.083 -357.996,-0.083 0,0.002 -357.995,0.077 -357.995,0.077 0,0.005 -67.868,-0.057 -67.868,-0.057 0,0.003 -5.657,0.018 -5.657,0.018 l -5.652,0.071 -5.618,0.268 -4.135,0.587 -3.961,1.154 -3.654,1.863 -3.25,2.524 -2.703,3.069 -1.894,3.59 -1.067,3.977 -0.467,4.155 -0.168,8.463 -0.024,8.485 c -0.004,0 0.043,67.87 0.043,67.87 -0.001,0 -0.004,202.467 -0.004,202.467 10e-4,0 0.003,202.468 0.003,202.468 0.001,0 -0.046,67.869 -0.046,67.869 0.004,0 0.014,4.573 0.014,4.573 l 0.012,3.647 0.016,2.723 0.017,1.798 0.009,0.61 0.006,0.308 0.037,1.47 0.047,1.137 0.079,1.289 0.137,1.5 0.196,1.486 0.227,1.265 0.21,0.936 0.353,1.272 0.297,0.874 0.471,1.152 0.152,0.327 c 0,0 0.04,0.084 0.055,0.113 l 0.028,0.059 0.043,0.086 0.383,0.721 0.796,1.27 1.361,1.717 2.077,2.028 1.838,1.424 2.241,1.368 2.683,1.182 3.813,1.026 4.411,0.562 4.94,0.213 5.421,0.069 c 0,0 5.884,0.017 5.884,0.019 0,0 67.868,-0.063 67.868,-0.058 0,0 357.995,0.078 357.995,0.077 0,0 357.996,-0.076 357.996,-0.082 0,0 67.868,0.063 67.868,0.061 l 5.656,-0.016 5.652,-0.07 5.618,-0.268 4.136,-0.587 3.961,-1.154 3.653,-1.863 3.251,-2.525 2.703,-3.068 1.893,-3.591 1.067,-3.977 0.468,-4.154 0.168,-8.463 c 0,0 0.023,-8.486 0.027,-8.486 0,0 -0.046,-67.869 -0.045,-67.869 L 2.291,296.816 c 0,0 -0.002,-202.467 -0.004,-202.467 0,0 0.048,-67.87 0.043,-67.87 L 2.32,21.906 2.308,18.26 2.293,15.536 2.275,13.739 2.267,13.129 2.261,12.82 2.224,11.351 2.177,10.213 2.098,8.925 1.96,7.425 1.764,5.938 1.537,4.674 1.327,3.737 0.975,2.465 0.678,1.592 0.207,0.439 0.055,0.112 c 0,0 -0.041,-0.084 -0.054,-0.11"
             style="fill:none;stroke:#ec008c;stroke-width:0.25;stroke-linecap:round;stroke-linejoin:round;stroke-miterlimit:10;stroke-dasharray:none;stroke-opacity:1"
             id="path22" /></g></g></g><g
       id="g969"
       style="fill:#000000;fill-opacity:1;stroke-width:1.36998741;stroke:none;stroke-opacity:1;stroke-miterlimit:4;stroke-dasharray:none"
       transform="matrix(0.5474503,0,0,-0.5474503,396.22201,415.99163)"><g
         id="g857"><path
           id="path954"
           style="fill:#000000;fill-opacity:1;stroke:none;stroke-width:1.36998741;stroke-opacity:1;stroke-miterlimit:4;stroke-dasharray:none"
           inkscape:transform-center-x="-4.3717758"
           inkscape:transform-center-y="-0.31116052"
           d="M 70.743196,45.141596 56.402986,87.957261 109.22109,63.044047 Z m 41.034614,103.483944 -90.741445,-39.44149 -1.2e-5,78.88297 z m -109.28826,49.57355 34.41156,80.35337 74.65761,-34.85543 z m 40.304121,-1.04735 91.175629,-41.95333 91.17564,41.95333 -91.17563,41.95333 z m 10.65999,-90.99205 80.449319,-36.287753 80.44932,36.287753 -80.44932,36.28775 z M 135.51206,3.8973097 169.81205,40.048951 135.87764,54.067247 100.84599,40.537172 Z m 62.32146,41.2442863 14.34021,42.815665 -52.8181,-24.913214 z M 157.989,148.62554 l 90.74144,-39.44149 1e-5,78.88297 z m 109.56972,49.57355 -34.41156,80.35337 -74.65761,-34.85543 z M 133.05859,251.65625 52.609375,287.94531 124,320.14648 v 46.35743 h 18 v -46.30469 l 71.50781,-32.25391 z" /></g></g></g></svg>
