<?xml version="1.0" encoding="UTF-8" standalone="no"?>
<svg
   xmlns:dc="http://purl.org/dc/elements/1.1/"
   xmlns:cc="http://creativecommons.org/ns#"
   xmlns:rdf="http://www.w3.org/1999/02/22-rdf-syntax-ns#"
   xmlns:svg="http://www.w3.org/2000/svg"
   xmlns="http://www.w3.org/2000/svg"
   xmlns:sodipodi="http://sodipodi.sourceforge.net/DTD/sodipodi-0.dtd"
   xmlns:inkscape="http://www.inkscape.org/namespaces/inkscape"
   version="1.1"
   id="svg2"
   xml:space="preserve"
   width="1253.7094"
   height="838.94269"
   viewBox="0 0 1253.7094 838.94269"
   sodipodi:docname="skin.svg"
   inkscape:version="1.0.1 (3bc2e813f5, 2020-09-07)"><metadata
     id="metadata8"><rdf:RDF><cc:Work
         rdf:about=""><dc:format>image/svg+xml</dc:format><dc:type
           rdf:resource="http://purl.org/dc/dcmitype/StillImage" /><dc:title /></cc:Work></rdf:RDF></metadata><defs
     id="defs6"><clipPath
       clipPathUnits="userSpaceOnUse"
       id="clipPath18"><path
         d="M 0,629.207 H 940.282 V 0 H 0 Z"
         id="path16" /></clipPath></defs><sodipodi:namedview
     pagecolor="#ffffff"
     bordercolor="#666666"
     borderopacity="1"
     objecttolerance="10"
     gridtolerance="10"
     guidetolerance="10"
     inkscape:pageopacity="0"
     inkscape:pageshadow="2"
     inkscape:window-width="1920"
     inkscape:window-height="1013"
     id="namedview4"
     showgrid="false"
     inkscape:zoom="0.53019246"
     inkscape:cx="169.4713"
     inkscape:cy="555.05938"
     inkscape:window-x="0"
     inkscape:window-y="30"
     inkscape:window-maximized="1"
     inkscape:current-layer="g10"
     inkscape:document-rotation="0" /><g
     id="g10"
     inkscape:groupmode="layer"
     inkscape:label="pbp_template_case_lid"
     transform="matrix(1.3333333,0,0,-1.3333333,0,838.94267)"><path
       id="path841"
       style="color:#000000;font-style:normal;font-variant:normal;font-weight:normal;font-stretch:normal;font-size:medium;line-height:normal;font-family:sans-serif;font-variant-ligatures:normal;font-variant-position:normal;font-variant-caps:normal;font-variant-numeric:normal;font-variant-alternates:normal;font-variant-east-asian:normal;font-feature-settings:normal;font-variation-settings:normal;text-indent:0;text-align:start;text-decoration:none;text-decoration-line:none;text-decoration-style:solid;text-decoration-color:#000000;letter-spacing:normal;word-spacing:normal;text-transform:none;writing-mode:lr-tb;direction:ltr;text-orientation:mixed;dominant-baseline:auto;baseline-shift:baseline;text-anchor:start;white-space:normal;shape-padding:0;shape-margin:0;inline-size:0;clip-rule:nonzero;display:inline;overflow:visible;visibility:visible;isolation:auto;mix-blend-mode:normal;color-interpolation:sRGB;color-interpolation-filters:linearRGB;solid-color:#000000;solid-opacity:1;vector-effect:none;fill:#000000;fill-opacity:1;fill-rule:nonzero;stroke:none;stroke-width:0.333333;stroke-linecap:round;stroke-linejoin:round;stroke-miterlimit:10;stroke-dasharray:none;stroke-dashoffset:0;stroke-opacity:1;color-rendering:auto;image-rendering:auto;shape-rendering:auto;text-rendering:auto;enable-background:accumulate;stop-color:#000000"
       d="M 626.85547 8.03125 C 626.85547 8.0299167 149.52734 8.1328125 149.52734 8.1328125 C 149.52734 8.1394792 59.037109 8.0566406 59.037109 8.0566406 C 59.037109 8.0593073 51.191406 8.0820312 51.191406 8.0820312 L 43.964844 8.1738281 L 37.376953 8.4570312 L 31.496094 9.2070312 L 26.412109 10.574219 L 22.833984 12.150391 L 19.847656 13.974609 L 17.396484 15.873047 L 14.626953 18.578125 L 12.8125 20.867188 L 11.75 22.560547 L 11.240234 23.521484 L 11.183594 23.636719 L 11.146484 23.714844 C 11.126484 23.75351 11.072266 23.865234 11.072266 23.865234 L 10.869141 24.300781 L 10.242188 25.837891 L 9.8457031 27.001953 L 9.375 28.699219 L 9.0957031 29.947266 L 8.7929688 31.632812 L 8.53125 33.615234 L 8.3476562 35.615234 L 8.2421875 37.333984 L 8.1796875 38.849609 L 8.1308594 40.808594 L 8.1230469 41.220703 L 8.1113281 42.033203 L 8.0878906 44.431641 L 8.0664062 48.060547 L 8.0507812 52.923828 C 8.0507812 52.923828 8.0385365 59.021484 8.0332031 59.021484 C 8.0332031 59.021484 8.0950833 149.51367 8.09375 149.51367 C 8.09375 149.51367 8.0911771 419.4707 8.0898438 419.4707 C 8.0898438 419.4707 8.0943698 689.42773 8.0957031 689.42773 C 8.0957031 689.42773 8.031776 779.91992 8.0371094 779.91992 L 8.0703125 791.23438 L 8.2929688 802.51758 L 8.9160156 808.05664 L 10.339844 813.35938 L 12.865234 818.14648 L 16.46875 822.23828 L 20.800781 825.60352 L 25.673828 828.08789 L 30.955078 829.62695 L 36.46875 830.41016 L 43.958984 830.76758 L 51.494141 830.86133 C 51.494141 830.86133 59.037109 830.88077 59.037109 830.88477 C 59.037109 830.88477 149.52734 830.80193 149.52734 830.80859 C 149.52734 830.80859 626.85547 830.90944 626.85547 830.91211 C 626.85547 830.91211 1104.1836 830.80745 1104.1836 830.80078 C 1104.1836 830.80078 1194.6738 830.88486 1194.6738 830.88086 L 1202.5176 830.85938 L 1209.7461 830.76758 L 1216.332 830.48242 L 1222.2129 829.73438 L 1227.2969 828.36523 L 1230.875 826.79102 L 1233.8633 824.9668 L 1236.3145 823.06836 L 1239.082 820.36328 L 1240.8984 818.07422 L 1241.9609 816.38086 L 1242.4688 815.41992 L 1242.5273 815.30469 C 1242.5273 815.30469 1242.5597 815.23928 1242.5664 815.22461 L 1242.5664 815.22266 C 1242.5837 815.18799 1242.6387 815.07617 1242.6387 815.07617 L 1242.8418 814.64062 L 1243.4688 813.10352 L 1243.8652 811.93945 L 1244.334 810.24219 L 1244.6152 808.99414 L 1244.918 807.30859 L 1245.1797 805.32617 L 1245.3633 803.32617 L 1245.4688 801.60742 L 1245.5312 800.08984 L 1245.5801 798.13281 L 1245.5879 797.7207 L 1245.5996 796.90625 L 1245.623 794.51172 L 1245.6426 790.87891 L 1245.6582 786.01758 L 1245.6719 779.91992 C 1245.6785 779.91992 1245.6152 689.42773 1245.6152 689.42773 C 1245.6179 689.42773 1245.6211 419.4707 1245.6211 419.4707 L 1245.6172 149.51367 C 1245.6159 149.51367 1245.6777 59.021484 1245.6777 59.021484 C 1245.6724 59.021484 1245.6406 47.707031 1245.6406 47.707031 L 1245.418 36.421875 L 1244.793 30.884766 L 1243.3711 25.582031 L 1240.8477 20.792969 L 1237.2422 16.703125 L 1232.9082 13.335938 L 1228.0371 10.851562 L 1222.7559 9.3144531 L 1217.2422 8.53125 L 1209.75 8.1738281 L 1202.2148 8.0800781 L 1194.6738 8.0585938 C 1194.6738 8.0559271 1104.1836 8.140625 1104.1836 8.140625 C 1104.1836 8.132625 626.85547 8.03125 626.85547 8.03125 z M 627.21094 287.13281 L 652.24805 313.51953 L 627.47852 323.75195 L 601.90625 313.87695 L 627.21094 287.13281 z M 579.93359 317.23828 L 608.01953 330.30469 L 569.4668 348.49023 L 579.93359 317.23828 z M 672.70117 317.23828 L 683.16797 348.49023 L 644.61523 330.30469 L 672.70117 317.23828 z M 626.03711 335.28906 L 684.75977 361.77734 L 626.03711 388.26367 L 567.31445 361.77734 L 626.03711 335.28906 z M 543.65039 363.98438 L 609.88672 392.77344 L 543.65039 421.56445 L 543.65039 363.98438 z M 709.85352 363.98438 L 709.85352 421.56445 L 643.61719 392.77344 L 709.85352 363.98438 z M 626.08398 397.57227 L 692.63672 428.19531 L 626.08398 458.81836 L 559.5332 428.19531 L 626.08398 397.57227 z M 530.11328 428.95898 L 609.72656 462.16992 L 555.23047 487.61133 L 530.11328 428.95898 z M 723.5957 428.95898 L 698.47852 487.61133 L 643.98242 462.16992 L 723.5957 428.95898 z M 625.41992 467.98047 L 684.14258 494.46875 L 631.94727 518.01172 L 631.94727 551.81055 L 618.80859 551.81055 L 618.80859 517.97266 L 566.69727 494.46875 L 625.41992 467.98047 z "
       transform="matrix(0.75000002,0,0,-0.75000002,0,629.20702)" /></g></svg>
